<svg version="1.1" id="Layer_1" xmlns="http://www.w3.org/2000/svg" xmlns:xlink="http://www.w3.org/1999/xlink" x="0px" y="0px"
	 width="100%" viewBox="0 0 1264 272" enable-background="new 0 0 1264 272" xml:space="preserve">
<path fill="#202020" opacity="1.000000" stroke="none" 
	d="
M914.000000,273.000000 
	C609.333313,273.000000 305.166656,273.000000 1.000000,273.000000 
	C1.000000,182.333328 1.000000,91.666664 1.000000,1.000000 
	C422.333344,1.000000 843.666687,1.000000 1265.000000,1.000000 
	C1265.000000,91.666664 1265.000000,182.333328 1265.000000,273.000000 
	C1148.166626,273.000000 1031.333374,273.000000 914.000000,273.000000 
M72.979019,230.520599 
	C76.160561,233.699860 79.228432,237.005127 82.563881,240.013763 
	C84.763260,241.997650 85.269928,243.922119 83.921318,246.556686 
	C82.030365,250.250793 79.886162,253.903229 78.697861,257.829987 
	C78.146561,259.651764 79.594276,262.078461 80.135773,264.230927 
	C82.131157,263.575531 84.712601,263.475342 85.983635,262.133728 
	C87.858757,260.154449 88.942993,257.356537 90.117249,254.794128 
	C96.807220,240.195724 98.181671,224.706451 97.478157,208.927551 
	C97.205795,202.818832 96.526222,196.728271 96.012810,190.390533 
	C112.307961,192.587006 128.194183,193.235855 144.023148,190.009293 
	C166.498245,185.427994 182.722260,173.249756 189.459229,150.779648 
	C192.010376,142.270676 193.370697,133.211807 193.852448,124.326530 
	C194.393768,114.342575 193.328644,104.271507 192.989151,94.971634 
	C205.352646,94.971634 217.805878,95.437416 230.207642,94.837982 
	C242.127014,94.261871 253.425629,90.803185 263.655029,84.364548 
	C266.265869,82.721230 267.858887,80.235558 265.637329,77.851624 
	C264.453552,76.581299 261.153931,76.309822 259.223053,76.912697 
	C255.299957,78.137611 251.758316,80.563225 247.850479,81.868225 
	C246.290070,82.389328 243.546280,81.896873 242.410583,80.779175 
	C226.144775,64.771164 210.016296,48.622036 194.033127,32.331867 
	C192.911179,31.188358 192.427078,28.409433 192.964813,26.843840 
	C194.357132,22.790216 196.837021,19.103355 198.155670,15.034448 
	C198.710434,13.322592 197.433762,11.017206 196.989639,8.981634 
	C194.961578,9.457535 192.524582,9.400082 191.017532,10.555545 
	C189.430557,11.772300 188.614761,14.090528 187.664307,16.026796 
	C179.790649,32.067215 178.424301,49.174458 179.524811,66.658295 
	C179.852371,71.862007 180.369064,77.053818 180.768539,81.881737 
	C166.277267,81.881737 152.243423,80.883049 138.403259,82.095451 
	C111.879196,84.418968 93.548004,99.759521 86.627724,124.289940 
	C84.702759,131.113388 83.499947,138.292114 83.132477,145.368439 
	C82.558823,156.415359 82.980576,167.513962 82.980576,178.869141 
	C83.183434,178.869141 82.385437,178.884460 81.588158,178.866852 
	C69.473167,178.599258 57.330837,177.704590 45.251324,178.236923 
	C33.861656,178.738846 23.047836,182.315613 13.264552,188.469055 
	C10.780429,190.031525 9.028363,192.060303 10.864141,195.054596 
	C12.646226,197.961304 15.159956,197.503937 17.817457,196.099670 
	C21.048048,194.392624 24.414906,192.944229 27.653606,191.251526 
	C30.755255,189.630447 32.954815,190.292252 35.447632,192.844650 
	C47.668236,205.357239 60.103081,217.660583 72.979019,230.520599 
M907.967041,163.785812 
	C908.569397,162.991379 909.112488,162.142563 909.783508,161.411148 
	C915.140747,155.571243 923.288818,153.346436 930.231995,155.956635 
	C937.533142,158.701431 938.933716,164.955124 939.228271,171.722305 
	C939.380249,175.213989 939.310364,178.715866 939.317566,182.213196 
	C939.334045,190.208023 939.257874,198.204102 939.382446,206.197128 
	C939.432800,209.431168 940.442078,212.228470 944.496643,212.173904 
	C948.477234,212.120316 949.613586,209.386429 949.589600,206.133270 
	C949.488953,192.483170 949.710754,178.805862 948.899475,165.193069 
	C948.144897,152.531891 939.540161,145.434341 926.948364,145.645065 
	C918.766418,145.782013 912.310486,149.507004 906.752441,155.157867 
	C905.747253,156.179825 904.836365,157.294495 903.629456,158.649933 
	C899.708740,149.972809 893.335754,145.881271 884.254883,145.604202 
	C875.236938,145.329041 868.550720,149.740845 862.445374,156.202118 
	C862.212585,155.158844 862.026550,154.713837 862.027710,154.269318 
	C862.037537,150.627563 862.097656,146.865295 856.961304,146.891022 
	C851.900574,146.916382 851.847595,150.612183 851.850830,154.287506 
	C851.865662,171.443344 851.861389,188.599197 851.859924,205.755035 
	C851.859680,209.273071 852.716248,212.197342 856.999084,212.143753 
	C861.266968,212.090332 862.021179,209.175919 862.008789,205.641815 
	C861.970215,194.648911 861.914978,183.654892 862.026001,172.662933 
	C862.141663,161.210571 873.924011,152.411911 884.967590,155.392487 
	C891.557434,157.171005 894.944031,162.240845 895.086975,171.287155 
	C895.257935,182.111023 895.120117,192.939468 895.175659,203.765625 
	C895.195312,207.597580 894.742493,212.105560 900.427307,212.100876 
	C905.920837,212.096344 905.316040,207.660767 905.343872,204.063461 
	C905.418701,194.403473 905.178894,184.736679 905.471680,175.084976 
	C905.579834,171.522568 906.827881,167.994736 907.967041,163.785812 
M478.017212,205.124603 
	C478.019470,194.298447 477.953583,183.471710 478.044067,172.646286 
	C478.126556,162.782379 486.331238,155.027634 496.542328,154.980865 
	C506.069305,154.937225 510.936707,160.428909 511.105804,171.791397 
	C511.254486,181.782608 511.142365,191.777618 511.161407,201.770920 
	C511.165192,203.767761 510.598816,206.115967 511.449585,207.670425 
	C512.465698,209.527008 514.708557,211.822556 516.447205,211.845261 
	C518.025940,211.865860 520.163940,209.348801 521.082031,207.473862 
	C521.877563,205.849182 521.309326,203.556213 521.342041,201.558594 
	C521.516113,190.913910 521.087280,180.214676 522.045044,169.640991 
	C522.883240,160.386719 532.036377,154.337021 542.114929,155.001984 
	C550.073792,155.527100 554.584595,161.014221 555.183289,170.934723 
	C555.273499,172.429581 555.291931,173.930496 555.293823,175.428665 
	C555.306458,185.588577 555.243713,195.749115 555.343872,205.908081 
	C555.377625,209.337585 556.393677,212.317688 560.717773,212.156036 
	C564.732422,212.005951 565.601624,209.123428 565.579834,205.914307 
	C565.489319,192.595673 565.757263,179.245499 564.859314,165.976883 
	C564.534302,161.174911 562.215271,155.868301 559.227173,152.017029 
	C552.656494,143.548370 538.357483,143.282501 527.913025,150.785919 
	C524.897278,152.952484 522.339172,155.756210 519.468689,158.360855 
	C515.661377,149.838409 509.222687,145.865417 500.133972,145.605225 
	C491.136383,145.347656 484.485443,149.825821 478.255554,156.451553 
	C478.127991,154.917862 478.013855,154.278488 478.032013,153.642914 
	C478.137054,149.968918 477.535248,146.779312 472.845428,146.886810 
	C468.144653,146.994507 467.870819,150.342178 467.876282,153.915146 
	C467.902588,171.070404 467.896423,188.225723 467.880981,205.381012 
	C467.877899,208.789337 468.325531,211.929703 472.642456,212.134949 
	C476.825409,212.333817 478.079254,209.690506 478.017212,205.124603 
M977.496216,235.778687 
	C977.875183,234.014877 978.552979,232.255905 978.581482,230.486450 
	C978.704834,222.833420 978.617065,215.177200 978.663330,207.522476 
	C978.670288,206.363403 978.979248,205.206161 979.211670,203.615494 
	C996.444824,220.732910 1021.513000,214.339935 1028.777954,192.966003 
	C1030.695923,187.323196 1031.171021,180.867020 1030.874146,174.855194 
	C1030.004883,157.253555 1015.406982,144.670715 998.090271,145.927048 
	C990.479309,146.479202 984.417419,150.256561 978.916992,156.247635 
	C978.773438,154.254913 978.695190,153.111145 978.607971,151.968063 
	C978.363403,148.764664 976.925049,146.330460 973.503235,146.351852 
	C969.854797,146.374664 968.286865,148.853561 968.285461,152.336716 
	C968.274841,178.796310 968.210144,205.256226 968.334717,231.715240 
	C968.361694,237.445465 971.760925,239.095032 977.496216,235.778687 
M1236.116211,223.694916 
	C1227.183960,230.487076 1217.833862,229.487991 1208.382812,225.054428 
	C1205.146606,223.536331 1202.546265,223.639145 1200.981567,227.186890 
	C1199.502319,230.540527 1201.308472,232.885635 1204.170776,233.941315 
	C1208.496338,235.536697 1212.976807,237.229187 1217.507446,237.659470 
	C1234.285156,239.252823 1251.310181,231.515213 1252.447144,210.751617 
	C1253.538086,190.829849 1252.902588,170.808350 1252.817871,150.831558 
	C1252.800049,146.624344 1248.714478,144.065262 1245.570557,146.233414 
	C1244.035767,147.291946 1242.953003,150.041748 1242.908081,152.053680 
	C1242.655762,163.370651 1242.922241,174.698318 1242.737793,186.017899 
	C1242.557983,197.054810 1234.863281,204.376770 1223.957886,204.275742 
	C1213.466675,204.178528 1209.001831,198.926300 1208.828979,186.471512 
	C1208.812866,185.306168 1208.822144,184.140442 1208.821533,182.974899 
	C1208.815918,172.484955 1208.863892,161.994553 1208.774658,151.505325 
	C1208.746094,148.140656 1207.384888,145.607269 1203.472168,145.707489 
	C1199.832520,145.800705 1198.620605,148.171799 1198.628418,151.383972 
	C1198.661987,165.035385 1198.365479,178.701630 1198.906372,192.334015 
	C1199.507568,207.489578 1210.894165,216.456345 1225.760254,213.246262 
	C1231.647705,211.974960 1237.043457,208.426086 1242.651001,205.919647 
	C1242.701294,211.794601 1241.752808,218.133682 1236.116211,223.694916 
M358.566254,165.922760 
	C353.333832,164.311707 348.009979,162.943161 342.897156,161.014999 
	C338.593842,159.392151 334.082489,157.721527 330.467255,155.002853 
	C323.675751,149.895615 324.212646,140.179825 331.337341,135.531799 
	C334.027832,133.776550 337.366302,132.632874 340.557953,132.099777 
	C349.756470,130.563324 358.077881,132.948410 365.117493,139.118820 
	C367.498047,141.205429 369.698761,141.871704 372.122864,139.638641 
	C374.713928,137.251724 374.381287,134.645645 372.153473,132.181534 
	C371.153534,131.075531 370.074249,130.016495 368.910095,129.087631 
	C357.994537,120.378113 338.312225,119.291534 326.470490,126.708855 
	C311.782166,135.909210 311.753784,156.896088 326.745789,165.630127 
	C331.681488,168.505585 337.502167,169.868317 342.930054,171.890778 
	C347.578888,173.622971 352.557098,174.765991 356.795959,177.202423 
	C359.744965,178.897476 362.576904,181.961533 363.909027,185.077560 
	C367.397888,193.238205 361.001373,201.422073 350.606140,203.006058 
	C339.730560,204.663239 330.147919,202.025925 322.063232,194.485748 
	C319.498718,192.093948 316.931091,191.171570 314.305939,194.048706 
	C311.750305,196.849594 312.753754,199.544617 315.144196,201.946243 
	C315.847687,202.653000 316.593262,203.324341 317.366638,203.954102 
	C328.490234,213.011917 341.181091,215.375290 354.904663,212.202591 
	C366.305145,209.566971 374.243774,201.321991 375.052765,192.028595 
	C376.167969,179.217361 371.682922,171.859741 358.566254,165.922760 
M1047.902954,198.556442 
	C1059.266113,216.322891 1076.911255,218.186203 1095.077393,203.274139 
	C1095.331299,205.033798 1095.121704,206.882462 1095.894409,208.115433 
	C1096.899658,209.719315 1098.721924,211.931015 1100.125854,211.884140 
	C1101.915894,211.824371 1104.038696,210.071808 1105.254639,208.469513 
	C1106.096436,207.360367 1105.755493,205.272141 1105.758667,203.621048 
	C1105.787476,188.642258 1105.781372,173.663406 1105.770020,158.684570 
	C1105.768066,156.023712 1106.319824,153.135056 1105.458618,150.773605 
	C1104.759155,148.855896 1102.378540,146.423279 1100.644653,146.342606 
	C1099.056519,146.268692 1097.150024,148.887817 1095.753784,150.618729 
	C1095.075684,151.459366 1095.243286,152.982224 1094.932373,154.735641 
	C1093.865845,153.840134 1093.246094,153.341354 1092.649780,152.815903 
	C1077.875610,139.798248 1056.541504,143.282043 1047.315430,160.652664 
	C1040.806396,172.907898 1041.148193,185.542191 1047.902954,198.556442 
M639.019897,162.586609 
	C630.223267,143.253952 604.464783,138.532364 589.546265,154.927963 
	C582.664917,162.490601 580.397278,171.690048 580.876892,181.713211 
	C581.523987,195.235718 587.622742,205.465820 600.201538,210.647614 
	C613.208679,216.005890 625.615295,214.364960 636.386658,204.620163 
	C638.753540,202.478821 640.861633,199.918823 638.256836,196.956406 
	C635.629822,193.968796 632.908508,195.708939 630.510315,197.929031 
	C625.170410,202.872421 618.761353,204.586823 611.634399,203.976654 
	C599.735291,202.957947 590.143066,192.147461 591.538879,180.957855 
	C592.638062,180.957855 593.782349,180.957932 594.926697,180.957855 
	C608.244812,180.956909 621.563049,180.981674 634.881042,180.942993 
	C640.630493,180.926285 642.534607,179.043854 641.851257,173.394974 
	C641.437988,169.978653 640.173523,166.665283 639.019897,162.586609 
M697.986450,139.494583 
	C689.467896,150.629654 686.831665,163.394135 689.515015,176.781982 
	C695.765747,207.968918 728.204712,222.794540 756.382263,207.803467 
	C759.528870,206.129425 762.399475,204.167938 760.138794,200.072723 
	C757.978088,196.158676 754.824036,196.999359 751.592957,198.812469 
	C745.645386,202.149933 739.239563,203.498642 732.421509,203.258881 
	C715.911865,202.678360 703.698242,192.458954 700.431213,176.361023 
	C696.857056,158.749512 704.270691,142.246033 718.995422,135.586105 
	C728.937134,131.089478 738.997192,131.399734 748.951782,135.766113 
	C750.319702,136.366165 751.607910,137.146133 752.965027,137.773529 
	C755.894165,139.127640 758.515869,139.055130 760.134033,135.800064 
	C761.708557,132.632996 760.384705,130.540100 757.587402,128.765610 
	C738.991638,116.969215 713.285645,121.375465 697.986450,139.494583 
M440.656036,206.188629 
	C457.860443,190.873825 456.852509,163.254211 438.632721,150.745819 
	C424.707977,141.186096 405.966522,143.608856 394.860199,156.404373 
	C383.757172,169.196182 384.140930,190.499619 395.701630,203.112900 
	C406.993958,215.433365 425.962372,216.940338 440.656036,206.188629 
M822.391541,207.959961 
	C842.300049,194.137772 841.260315,163.419571 822.513977,150.666718 
	C809.037598,141.498962 790.784668,143.501434 779.775391,155.394485 
	C768.193909,167.905655 767.631348,188.144012 778.489014,201.674881 
	C788.649536,214.336990 806.768799,217.117569 822.391541,207.959961 
M1137.277100,163.067703 
	C1143.416260,155.536301 1152.216431,152.540497 1160.336304,155.217743 
	C1166.605713,157.284836 1169.726562,163.430115 1169.801880,173.860886 
	C1169.807861,174.693481 1169.804321,175.526138 1169.804321,176.358765 
	C1169.804932,185.850662 1169.803589,195.342575 1169.807007,204.834473 
	C1169.808228,208.487259 1169.861450,212.275146 1174.965942,212.136597 
	C1179.986572,212.000305 1179.934326,208.172165 1179.944702,204.564499 
	C1179.958130,199.901855 1180.035645,195.237198 1179.931274,190.576859 
	C1179.726562,181.433716 1180.017822,172.224411 1178.987427,163.169510 
	C1177.835327,153.044662 1172.143433,147.334763 1163.278687,145.566055 
	C1154.180908,143.750839 1146.147339,145.994919 1139.215576,152.160965 
	C1137.913208,153.319427 1136.635498,154.505585 1135.041382,155.956772 
	C1134.827148,153.930527 1135.182373,152.045090 1134.401367,151.066193 
	C1133.044556,149.365555 1131.042847,147.264343 1129.202881,147.154572 
	C1127.738281,147.067215 1124.782593,149.676071 1124.758057,151.126541 
	C1124.438232,169.933243 1124.408081,188.748795 1124.721436,207.555176 
	C1124.747681,209.124725 1127.760010,211.826752 1129.422729,211.855942 
	C1131.102539,211.885422 1133.138794,209.464996 1134.416138,207.685181 
	C1135.147705,206.665665 1134.738525,204.785049 1134.741577,203.291885 
	C1134.761475,193.300430 1134.585083,183.304428 1134.852539,173.320038 
	C1134.938599,170.106796 1136.171143,166.924271 1137.277100,163.067703 
z"/>
<path fill="#C8AFD5" opacity="1.000000" stroke="none" 
	d="
M72.720619,230.279236 
	C60.103081,217.660583 47.668236,205.357239 35.447632,192.844650 
	C32.954815,190.292252 30.755255,189.630447 27.653606,191.251526 
	C24.414906,192.944229 21.048048,194.392624 17.817457,196.099670 
	C15.159956,197.503937 12.646226,197.961304 10.864141,195.054596 
	C9.028363,192.060303 10.780429,190.031525 13.264552,188.469055 
	C23.047836,182.315613 33.861656,178.738846 45.251324,178.236923 
	C57.330837,177.704590 69.473167,178.599258 81.588158,178.866852 
	C82.385437,178.884460 83.183434,178.869141 82.980576,178.869141 
	C82.980576,167.513962 82.558823,156.415359 83.132477,145.368439 
	C83.499947,138.292114 84.702759,131.113388 86.627724,124.289940 
	C93.548004,99.759521 111.879196,84.418968 138.403259,82.095451 
	C152.243423,80.883049 166.277267,81.881737 180.768539,81.881737 
	C180.369064,77.053818 179.852371,71.862007 179.524811,66.658295 
	C178.424301,49.174458 179.790649,32.067215 187.664307,16.026796 
	C188.614761,14.090528 189.430557,11.772300 191.017532,10.555545 
	C192.524582,9.400082 194.961578,9.457535 196.989639,8.981634 
	C197.433762,11.017206 198.710434,13.322592 198.155670,15.034448 
	C196.837021,19.103355 194.357132,22.790216 192.964813,26.843840 
	C192.427078,28.409433 192.911179,31.188358 194.033127,32.331867 
	C210.016296,48.622036 226.144775,64.771164 242.410583,80.779175 
	C243.546280,81.896873 246.290070,82.389328 247.850479,81.868225 
	C251.758316,80.563225 255.299957,78.137611 259.223053,76.912697 
	C261.153931,76.309822 264.453552,76.581299 265.637329,77.851624 
	C267.858887,80.235558 266.265869,82.721230 263.655029,84.364548 
	C253.425629,90.803185 242.127014,94.261871 230.207642,94.837982 
	C217.805878,95.437416 205.352646,94.971634 192.989151,94.971634 
	C193.328644,104.271507 194.393768,114.342575 193.852448,124.326530 
	C193.370697,133.211807 192.010376,142.270676 189.459229,150.779648 
	C182.722260,173.249756 166.498245,185.427994 144.023148,190.009293 
	C128.194183,193.235855 112.307961,192.587006 96.012810,190.390533 
	C96.526222,196.728271 97.205795,202.818832 97.478157,208.927551 
	C98.181671,224.706451 96.807220,240.195724 90.117249,254.794128 
	C88.942993,257.356537 87.858757,260.154449 85.983635,262.133728 
	C84.712601,263.475342 82.131157,263.575531 80.135773,264.230927 
	C79.594276,262.078461 78.146561,259.651764 78.697861,257.829987 
	C79.886162,253.903229 82.030365,250.250793 83.921318,246.556686 
	C85.269928,243.922119 84.763260,241.997650 82.563881,240.013763 
	C79.228432,237.005127 76.160561,233.699860 72.720619,230.279236 
M164.972122,171.674652 
	C164.474350,170.399872 164.309433,168.798080 163.427689,167.900528 
	C153.864029,158.165283 144.190521,148.537903 134.541656,138.886429 
	C124.556503,128.898605 114.565437,118.916702 104.294258,108.649612 
	C98.787285,115.333778 95.978470,122.895119 94.165932,130.840210 
	C93.887741,132.059616 94.961853,134.004074 95.988258,135.041809 
	C110.499268,149.712997 125.062416,164.334000 139.783844,178.793152 
	C141.018646,180.005966 143.832230,180.907410 145.310867,180.352081 
	C151.793045,177.917465 158.053772,174.893204 164.972122,171.674652 
M127.365707,119.134285 
	C142.335724,134.171204 157.305740,149.208130 173.628250,165.603592 
	C177.049240,156.820496 180.002823,149.503860 182.663162,142.082138 
	C183.009827,141.115021 182.191116,139.266693 181.332977,138.400146 
	C166.560089,123.482780 151.713409,108.638168 136.810257,93.850838 
	C135.891312,92.939049 134.222900,91.935066 133.151413,92.159431 
	C125.016899,93.862770 117.349937,96.708725 110.380409,102.638611 
	C116.114388,108.201920 121.490303,113.417824 127.365707,119.134285 
M77.142365,187.159241 
	C65.973557,186.004639 54.812920,185.152039 44.964401,187.338104 
	C59.155357,201.535767 73.586548,215.973785 87.664856,230.058762 
	C87.664856,219.746078 88.138596,208.474670 87.509583,197.265137 
	C87.036865,188.841049 86.406479,188.876419 77.142365,187.159241 
M214.615540,86.876823 
	C220.773895,86.513695 226.932266,86.150558 232.111069,85.845192 
	C217.523682,71.327499 203.029251,56.902325 189.106598,43.046200 
	C187.215958,54.752159 187.839355,67.647659 189.930984,80.561180 
	C190.402451,83.471977 191.650375,84.632179 194.303360,84.897690 
	C200.761734,85.544022 207.217865,86.212822 214.615540,86.876823 
M91.945992,165.277359 
	C91.999535,166.108047 91.990730,166.948273 92.115837,167.768036 
	C94.555389,183.753448 91.506134,180.691406 106.645706,182.593475 
	C114.360199,183.562698 122.296921,182.763199 129.141434,182.763199 
	C116.911674,170.387909 104.495430,157.823914 91.886833,145.065277 
	C91.886833,151.451691 91.886833,157.887482 91.945992,165.277359 
M184.630936,104.098091 
	C184.125702,100.982147 183.808945,97.817093 183.016678,94.775925 
	C182.725327,93.657608 181.456390,92.223907 180.385391,91.966698 
	C169.340103,89.314240 158.146347,89.217445 145.475037,90.048431 
	C158.742630,103.732285 171.093521,116.470688 183.444412,129.209091 
	C183.894135,128.778915 184.343857,128.348724 184.793579,127.918549 
	C184.793579,120.278969 184.793579,112.639397 184.630936,104.098091 
z"/>
<path fill="#C7AFD4" opacity="1.000000" stroke="none" 
	d="
M907.761475,164.118469 
	C906.827881,167.994736 905.579834,171.522568 905.471680,175.084976 
	C905.178894,184.736679 905.418701,194.403473 905.343872,204.063461 
	C905.316040,207.660767 905.920837,212.096344 900.427307,212.100876 
	C894.742493,212.105560 895.195312,207.597580 895.175659,203.765625 
	C895.120117,192.939468 895.257935,182.111023 895.086975,171.287155 
	C894.944031,162.240845 891.557434,157.171005 884.967590,155.392487 
	C873.924011,152.411911 862.141663,161.210571 862.026001,172.662933 
	C861.914978,183.654892 861.970215,194.648911 862.008789,205.641815 
	C862.021179,209.175919 861.266968,212.090332 856.999084,212.143753 
	C852.716248,212.197342 851.859680,209.273071 851.859924,205.755035 
	C851.861389,188.599197 851.865662,171.443344 851.850830,154.287506 
	C851.847595,150.612183 851.900574,146.916382 856.961304,146.891022 
	C862.097656,146.865295 862.037537,150.627563 862.027710,154.269318 
	C862.026550,154.713837 862.212585,155.158844 862.445374,156.202118 
	C868.550720,149.740845 875.236938,145.329041 884.254883,145.604202 
	C893.335754,145.881271 899.708740,149.972809 903.629456,158.649933 
	C904.836365,157.294495 905.747253,156.179825 906.752441,155.157867 
	C912.310486,149.507004 918.766418,145.782013 926.948364,145.645065 
	C939.540161,145.434341 948.144897,152.531891 948.899475,165.193069 
	C949.710754,178.805862 949.488953,192.483170 949.589600,206.133270 
	C949.613586,209.386429 948.477234,212.120316 944.496643,212.173904 
	C940.442078,212.228470 939.432800,209.431168 939.382446,206.197128 
	C939.257874,198.204102 939.334045,190.208023 939.317566,182.213196 
	C939.310364,178.715866 939.380249,175.213989 939.228271,171.722305 
	C938.933716,164.955124 937.533142,158.701431 930.231995,155.956635 
	C923.288818,153.346436 915.140747,155.571243 909.783508,161.411148 
	C909.112488,162.142563 908.569397,162.991379 907.761475,164.118469 
z"/>
<path fill="#C7AFD5" opacity="1.000000" stroke="none" 
	d="
M478.015930,205.571777 
	C478.079254,209.690506 476.825409,212.333817 472.642456,212.134949 
	C468.325531,211.929703 467.877899,208.789337 467.880981,205.381012 
	C467.896423,188.225723 467.902588,171.070404 467.876282,153.915146 
	C467.870819,150.342178 468.144653,146.994507 472.845428,146.886810 
	C477.535248,146.779312 478.137054,149.968918 478.032013,153.642914 
	C478.013855,154.278488 478.127991,154.917862 478.255554,156.451553 
	C484.485443,149.825821 491.136383,145.347656 500.133972,145.605225 
	C509.222687,145.865417 515.661377,149.838409 519.468689,158.360855 
	C522.339172,155.756210 524.897278,152.952484 527.913025,150.785919 
	C538.357483,143.282501 552.656494,143.548370 559.227173,152.017029 
	C562.215271,155.868301 564.534302,161.174911 564.859314,165.976883 
	C565.757263,179.245499 565.489319,192.595673 565.579834,205.914307 
	C565.601624,209.123428 564.732422,212.005951 560.717773,212.156036 
	C556.393677,212.317688 555.377625,209.337585 555.343872,205.908081 
	C555.243713,195.749115 555.306458,185.588577 555.293823,175.428665 
	C555.291931,173.930496 555.273499,172.429581 555.183289,170.934723 
	C554.584595,161.014221 550.073792,155.527100 542.114929,155.001984 
	C532.036377,154.337021 522.883240,160.386719 522.045044,169.640991 
	C521.087280,180.214676 521.516113,190.913910 521.342041,201.558594 
	C521.309326,203.556213 521.877563,205.849182 521.082031,207.473862 
	C520.163940,209.348801 518.025940,211.865860 516.447205,211.845261 
	C514.708557,211.822556 512.465698,209.527008 511.449585,207.670425 
	C510.598816,206.115967 511.165192,203.767761 511.161407,201.770920 
	C511.142365,191.777618 511.254486,181.782608 511.105804,171.791397 
	C510.936707,160.428909 506.069305,154.937225 496.542328,154.980865 
	C486.331238,155.027634 478.126556,162.782379 478.044067,172.646286 
	C477.953583,183.471710 478.019470,194.298447 478.015930,205.571777 
z"/>
<path fill="#C6AED4" opacity="1.000000" stroke="none" 
	d="
M977.237183,236.079987 
	C971.760925,239.095032 968.361694,237.445465 968.334717,231.715240 
	C968.210144,205.256226 968.274841,178.796310 968.285461,152.336716 
	C968.286865,148.853561 969.854797,146.374664 973.503235,146.351852 
	C976.925049,146.330460 978.363403,148.764664 978.607971,151.968063 
	C978.695190,153.111145 978.773438,154.254913 978.916992,156.247635 
	C984.417419,150.256561 990.479309,146.479202 998.090271,145.927048 
	C1015.406982,144.670715 1030.004883,157.253555 1030.874146,174.855194 
	C1031.171021,180.867020 1030.695923,187.323196 1028.777954,192.966003 
	C1021.513000,214.339935 996.444824,220.732910 979.211670,203.615494 
	C978.979248,205.206161 978.670288,206.363403 978.663330,207.522476 
	C978.617065,215.177200 978.704834,222.833420 978.581482,230.486450 
	C978.552979,232.255905 977.875183,234.014877 977.237183,236.079987 
M978.225708,175.121063 
	C978.157837,177.281967 977.942810,179.449951 978.046204,181.602631 
	C978.670227,194.592819 987.701416,203.999039 999.504700,204.041946 
	C1010.391357,204.081528 1019.152161,196.185822 1020.847473,184.806732 
	C1022.864746,171.266785 1016.442688,159.030380 1005.766357,156.071655 
	C992.661133,152.439880 981.836365,159.654633 978.225708,175.121063 
z"/>
<path fill="#C8B0D6" opacity="1.000000" stroke="none" 
	d="
M1236.388428,223.440979 
	C1241.752808,218.133682 1242.701294,211.794601 1242.651001,205.919647 
	C1237.043457,208.426086 1231.647705,211.974960 1225.760254,213.246262 
	C1210.894165,216.456345 1199.507568,207.489578 1198.906372,192.334015 
	C1198.365479,178.701630 1198.661987,165.035385 1198.628418,151.383972 
	C1198.620605,148.171799 1199.832520,145.800705 1203.472168,145.707489 
	C1207.384888,145.607269 1208.746094,148.140656 1208.774658,151.505325 
	C1208.863892,161.994553 1208.815918,172.484955 1208.821533,182.974899 
	C1208.822144,184.140442 1208.812866,185.306168 1208.828979,186.471512 
	C1209.001831,198.926300 1213.466675,204.178528 1223.957886,204.275742 
	C1234.863281,204.376770 1242.557983,197.054810 1242.737793,186.017899 
	C1242.922241,174.698318 1242.655762,163.370651 1242.908081,152.053680 
	C1242.953003,150.041748 1244.035767,147.291946 1245.570557,146.233414 
	C1248.714478,144.065262 1252.800049,146.624344 1252.817871,150.831558 
	C1252.902588,170.808350 1253.538086,190.829849 1252.447144,210.751617 
	C1251.310181,231.515213 1234.285156,239.252823 1217.507446,237.659470 
	C1212.976807,237.229187 1208.496338,235.536697 1204.170776,233.941315 
	C1201.308472,232.885635 1199.502319,230.540527 1200.981567,227.186890 
	C1202.546265,223.639145 1205.146606,223.536331 1208.382812,225.054428 
	C1217.833862,229.487991 1227.183960,230.487076 1236.388428,223.440979 
z"/>
<path fill="#C8B0D6" opacity="1.000000" stroke="none" 
	d="
M358.928528,166.047119 
	C371.682922,171.859741 376.167969,179.217361 375.052765,192.028595 
	C374.243774,201.321991 366.305145,209.566971 354.904663,212.202591 
	C341.181091,215.375290 328.490234,213.011917 317.366638,203.954102 
	C316.593262,203.324341 315.847687,202.653000 315.144196,201.946243 
	C312.753754,199.544617 311.750305,196.849594 314.305939,194.048706 
	C316.931091,191.171570 319.498718,192.093948 322.063232,194.485748 
	C330.147919,202.025925 339.730560,204.663239 350.606140,203.006058 
	C361.001373,201.422073 367.397888,193.238205 363.909027,185.077560 
	C362.576904,181.961533 359.744965,178.897476 356.795959,177.202423 
	C352.557098,174.765991 347.578888,173.622971 342.930054,171.890778 
	C337.502167,169.868317 331.681488,168.505585 326.745789,165.630127 
	C311.753784,156.896088 311.782166,135.909210 326.470490,126.708855 
	C338.312225,119.291534 357.994537,120.378113 368.910095,129.087631 
	C370.074249,130.016495 371.153534,131.075531 372.153473,132.181534 
	C374.381287,134.645645 374.713928,137.251724 372.122864,139.638641 
	C369.698761,141.871704 367.498047,141.205429 365.117493,139.118820 
	C358.077881,132.948410 349.756470,130.563324 340.557953,132.099777 
	C337.366302,132.632874 334.027832,133.776550 331.337341,135.531799 
	C324.212646,140.179825 323.675751,149.895615 330.467255,155.002853 
	C334.082489,157.721527 338.593842,159.392151 342.897156,161.014999 
	C348.009979,162.943161 353.333832,164.311707 358.928528,166.047119 
z"/>
<path fill="#C8AFD5" opacity="1.000000" stroke="none" 
	d="
M1047.692993,198.251266 
	C1041.148193,185.542191 1040.806396,172.907898 1047.315430,160.652664 
	C1056.541504,143.282043 1077.875610,139.798248 1092.649780,152.815903 
	C1093.246094,153.341354 1093.865845,153.840134 1094.932373,154.735641 
	C1095.243286,152.982224 1095.075684,151.459366 1095.753784,150.618729 
	C1097.150024,148.887817 1099.056519,146.268692 1100.644653,146.342606 
	C1102.378540,146.423279 1104.759155,148.855896 1105.458618,150.773605 
	C1106.319824,153.135056 1105.768066,156.023712 1105.770020,158.684570 
	C1105.781372,173.663406 1105.787476,188.642258 1105.758667,203.621048 
	C1105.755493,205.272141 1106.096436,207.360367 1105.254639,208.469513 
	C1104.038696,210.071808 1101.915894,211.824371 1100.125854,211.884140 
	C1098.721924,211.931015 1096.899658,209.719315 1095.894409,208.115433 
	C1095.121704,206.882462 1095.331299,205.033798 1095.077393,203.274139 
	C1076.911255,218.186203 1059.266113,216.322891 1047.692993,198.251266 
M1059.890015,160.373871 
	C1052.027710,169.160400 1050.475952,183.260864 1056.261963,193.340729 
	C1064.022583,206.860565 1082.173340,207.893692 1091.195435,195.271683 
	C1095.234253,189.621078 1096.651733,183.142639 1095.917480,176.351685 
	C1094.955933,167.457260 1091.417480,159.805023 1082.660034,156.170273 
	C1074.700439,152.866684 1067.043335,153.889114 1059.890015,160.373871 
z"/>
<path fill="#C8B0D6" opacity="1.000000" stroke="none" 
	d="
M639.155701,162.946136 
	C640.173523,166.665283 641.437988,169.978653 641.851257,173.394974 
	C642.534607,179.043854 640.630493,180.926285 634.881042,180.942993 
	C621.563049,180.981674 608.244812,180.956909 594.926697,180.957855 
	C593.782349,180.957932 592.638062,180.957855 591.538879,180.957855 
	C590.143066,192.147461 599.735291,202.957947 611.634399,203.976654 
	C618.761353,204.586823 625.170410,202.872421 630.510315,197.929031 
	C632.908508,195.708939 635.629822,193.968796 638.256836,196.956406 
	C640.861633,199.918823 638.753540,202.478821 636.386658,204.620163 
	C625.615295,214.364960 613.208679,216.005890 600.201538,210.647614 
	C587.622742,205.465820 581.523987,195.235718 580.876892,181.713211 
	C580.397278,171.690048 582.664917,162.490601 589.546265,154.927963 
	C604.464783,138.532364 630.223267,143.253952 639.155701,162.946136 
M616.495056,172.023163 
	C621.289185,172.023163 626.083374,172.023163 630.874634,172.023163 
	C630.821045,162.258118 622.502991,154.835831 611.913391,154.695709 
	C600.919128,154.550217 592.293701,161.981873 592.092468,172.023163 
	C599.896057,172.023163 607.696228,172.023163 616.495056,172.023163 
z"/>
<path fill="#C8B0D6" opacity="1.000000" stroke="none" 
	d="
M698.229370,139.234192 
	C713.285645,121.375465 738.991638,116.969215 757.587402,128.765610 
	C760.384705,130.540100 761.708557,132.632996 760.134033,135.800064 
	C758.515869,139.055130 755.894165,139.127640 752.965027,137.773529 
	C751.607910,137.146133 750.319702,136.366165 748.951782,135.766113 
	C738.997192,131.399734 728.937134,131.089478 718.995422,135.586105 
	C704.270691,142.246033 696.857056,158.749512 700.431213,176.361023 
	C703.698242,192.458954 715.911865,202.678360 732.421509,203.258881 
	C739.239563,203.498642 745.645386,202.149933 751.592957,198.812469 
	C754.824036,196.999359 757.978088,196.158676 760.138794,200.072723 
	C762.399475,204.167938 759.528870,206.129425 756.382263,207.803467 
	C728.204712,222.794540 695.765747,207.968918 689.515015,176.781982 
	C686.831665,163.394135 689.467896,150.629654 698.229370,139.234192 
z"/>
<path fill="#C8B0D6" opacity="1.000000" stroke="none" 
	d="
M440.378143,206.414398 
	C425.962372,216.940338 406.993958,215.433365 395.701630,203.112900 
	C384.140930,190.499619 383.757172,169.196182 394.860199,156.404373 
	C405.966522,143.608856 424.707977,141.186096 438.632721,150.745819 
	C456.852509,163.254211 457.860443,190.873825 440.378143,206.414398 
M410.711243,202.075974 
	C419.318665,205.704926 427.486176,204.782242 434.423340,198.600296 
	C442.191284,191.678024 444.043182,182.616348 441.955872,172.636856 
	C439.782745,162.247070 431.532227,155.105484 421.037445,154.465424 
	C411.000305,153.853271 401.864746,160.122803 398.491028,169.938553 
	C394.156830,182.548782 398.586945,194.823044 410.711243,202.075974 
z"/>
<path fill="#C8B0D6" opacity="1.000000" stroke="none" 
	d="
M822.074951,208.137482 
	C806.768799,217.117569 788.649536,214.336990 778.489014,201.674881 
	C767.631348,188.144012 768.193909,167.905655 779.775391,155.394485 
	C790.784668,143.501434 809.037598,141.498962 822.513977,150.666718 
	C841.260315,163.419571 842.300049,194.137772 822.074951,208.137482 
M795.823975,155.910660 
	C780.370483,162.904694 775.851257,183.129395 786.947205,196.176544 
	C792.723022,202.968002 800.241272,205.479538 808.894531,203.467255 
	C822.141663,200.386703 829.388611,186.699249 825.834900,172.043076 
	C822.599976,158.701660 810.816833,152.079056 795.823975,155.910660 
z"/>
<path fill="#C5ADD2" opacity="1.000000" stroke="none" 
	d="
M1137.078125,163.397690 
	C1136.171143,166.924271 1134.938599,170.106796 1134.852539,173.320038 
	C1134.585083,183.304428 1134.761475,193.300430 1134.741577,203.291885 
	C1134.738525,204.785049 1135.147705,206.665665 1134.416138,207.685181 
	C1133.138794,209.464996 1131.102539,211.885422 1129.422729,211.855942 
	C1127.760010,211.826752 1124.747681,209.124725 1124.721436,207.555176 
	C1124.408081,188.748795 1124.438232,169.933243 1124.758057,151.126541 
	C1124.782593,149.676071 1127.738281,147.067215 1129.202881,147.154572 
	C1131.042847,147.264343 1133.044556,149.365555 1134.401367,151.066193 
	C1135.182373,152.045090 1134.827148,153.930527 1135.041382,155.956772 
	C1136.635498,154.505585 1137.913208,153.319427 1139.215576,152.160965 
	C1146.147339,145.994919 1154.180908,143.750839 1163.278687,145.566055 
	C1172.143433,147.334763 1177.835327,153.044662 1178.987427,163.169510 
	C1180.017822,172.224411 1179.726562,181.433716 1179.931274,190.576859 
	C1180.035645,195.237198 1179.958130,199.901855 1179.944702,204.564499 
	C1179.934326,208.172165 1179.986572,212.000305 1174.965942,212.136597 
	C1169.861450,212.275146 1169.808228,208.487259 1169.807007,204.834473 
	C1169.803589,195.342575 1169.804932,185.850662 1169.804321,176.358765 
	C1169.804321,175.526138 1169.807861,174.693481 1169.801880,173.860886 
	C1169.726562,163.430115 1166.605713,157.284836 1160.336304,155.217743 
	C1152.216431,152.540497 1143.416260,155.536301 1137.078125,163.397690 
z"/>
<path fill="#232223" opacity="1.000000" stroke="none" 
	d="
M164.683472,171.878738 
	C158.053772,174.893204 151.793045,177.917465 145.310867,180.352081 
	C143.832230,180.907410 141.018646,180.005966 139.783844,178.793152 
	C125.062416,164.334000 110.499268,149.712997 95.988258,135.041809 
	C94.961853,134.004074 93.887741,132.059616 94.165932,130.840210 
	C95.978470,122.895119 98.787285,115.333778 104.294258,108.649612 
	C114.565437,118.916702 124.556503,128.898605 134.541656,138.886429 
	C144.190521,148.537903 153.864029,158.165283 163.427689,167.900528 
	C164.309433,168.798080 164.474350,170.399872 164.683472,171.878738 
z"/>
<path fill="#232323" opacity="1.000000" stroke="none" 
	d="
M127.115967,118.884003 
	C121.490303,113.417824 116.114388,108.201920 110.380409,102.638611 
	C117.349937,96.708725 125.016899,93.862770 133.151413,92.159431 
	C134.222900,91.935066 135.891312,92.939049 136.810257,93.850838 
	C151.713409,108.638168 166.560089,123.482780 181.332977,138.400146 
	C182.191116,139.266693 183.009827,141.115021 182.663162,142.082138 
	C180.002823,149.503860 177.049240,156.820496 173.628250,165.603592 
	C157.305740,149.208130 142.335724,134.171204 127.115967,118.884003 
z"/>
<path fill="#242425" opacity="1.000000" stroke="none" 
	d="
M77.580070,187.207916 
	C86.406479,188.876419 87.036865,188.841049 87.509583,197.265137 
	C88.138596,208.474670 87.664856,219.746078 87.664856,230.058762 
	C73.586548,215.973785 59.155357,201.535767 44.964401,187.338104 
	C54.812920,185.152039 65.973557,186.004639 77.580070,187.207916 
z"/>
<path fill="#222223" opacity="1.000000" stroke="none" 
	d="
M214.145218,86.874695 
	C207.217865,86.212822 200.761734,85.544022 194.303360,84.897690 
	C191.650375,84.632179 190.402451,83.471977 189.930984,80.561180 
	C187.839355,67.647659 187.215958,54.752159 189.106598,43.046200 
	C203.029251,56.902325 217.523682,71.327499 232.111069,85.845192 
	C226.932266,86.150558 220.773895,86.513695 214.145218,86.874695 
z"/>
<path fill="#242324" opacity="1.000000" stroke="none" 
	d="
M91.916412,164.800323 
	C91.886833,157.887482 91.886833,151.451691 91.886833,145.065277 
	C104.495430,157.823914 116.911674,170.387909 129.141434,182.763199 
	C122.296921,182.763199 114.360199,183.562698 106.645706,182.593475 
	C91.506134,180.691406 94.555389,183.753448 92.115837,167.768036 
	C91.990730,166.948273 91.999535,166.108047 91.916412,164.800323 
z"/>
<path fill="#232323" opacity="1.000000" stroke="none" 
	d="
M184.712250,104.548950 
	C184.793579,112.639397 184.793579,120.278969 184.793579,127.918549 
	C184.343857,128.348724 183.894135,128.778915 183.444412,129.209091 
	C171.093521,116.470688 158.742630,103.732285 145.475037,90.048431 
	C158.146347,89.217445 169.340103,89.314240 180.385391,91.966698 
	C181.456390,92.223907 182.725327,93.657608 183.016678,94.775925 
	C183.808945,97.817093 184.125702,100.982147 184.712250,104.548950 
z"/>
<path fill="#222222" opacity="1.000000" stroke="none" 
	d="
M978.329712,174.705048 
	C981.836365,159.654633 992.661133,152.439880 1005.766357,156.071655 
	C1016.442688,159.030380 1022.864746,171.266785 1020.847473,184.806732 
	C1019.152161,196.185822 1010.391357,204.081528 999.504700,204.041946 
	C987.701416,203.999039 978.670227,194.592819 978.046204,181.602631 
	C977.942810,179.449951 978.157837,177.281967 978.329712,174.705048 
z"/>
<path fill="#222222" opacity="1.000000" stroke="none" 
	d="
M1060.158936,160.129333 
	C1067.043335,153.889114 1074.700439,152.866684 1082.660034,156.170273 
	C1091.417480,159.805023 1094.955933,167.457260 1095.917480,176.351685 
	C1096.651733,183.142639 1095.234253,189.621078 1091.195435,195.271683 
	C1082.173340,207.893692 1064.022583,206.860565 1056.261963,193.340729 
	C1050.475952,183.260864 1052.027710,169.160400 1060.158936,160.129333 
z"/>
<path fill="#222222" opacity="1.000000" stroke="none" 
	d="
M615.995728,172.023163 
	C607.696228,172.023163 599.896057,172.023163 592.092468,172.023163 
	C592.293701,161.981873 600.919128,154.550217 611.913391,154.695709 
	C622.502991,154.835831 630.821045,162.258118 630.874634,172.023163 
	C626.083374,172.023163 621.289185,172.023163 615.995728,172.023163 
z"/>
<path fill="#222222" opacity="1.000000" stroke="none" 
	d="
M410.351501,201.939423 
	C398.586945,194.823044 394.156830,182.548782 398.491028,169.938553 
	C401.864746,160.122803 411.000305,153.853271 421.037445,154.465424 
	C431.532227,155.105484 439.782745,162.247070 441.955872,172.636856 
	C444.043182,182.616348 442.191284,191.678024 434.423340,198.600296 
	C427.486176,204.782242 419.318665,205.704926 410.351501,201.939423 
z"/>
<path fill="#222222" opacity="1.000000" stroke="none" 
	d="
M796.212158,155.761261 
	C810.816833,152.079056 822.599976,158.701660 825.834900,172.043076 
	C829.388611,186.699249 822.141663,200.386703 808.894531,203.467255 
	C800.241272,205.479538 792.723022,202.968002 786.947205,196.176544 
	C775.851257,183.129395 780.370483,162.904694 796.212158,155.761261 
z"/>
</svg>