<svg width="355" height="64" viewBox="0 0 355 64" fill="none" xmlns="http://www.w3.org/2000/svg">
    <g clip-path="url(#clip0)">
        <path
                d="M174.956 51.3787C174.464 51.3683 173.977 51.4756 173.535 51.6915C173.094 51.9075 172.71 52.226 172.416 52.6203V47.8796H170.968V60.3335H172.247L172.36 59.2047C172.645 59.6291 173.032 59.9753 173.486 60.2119C173.939 60.4484 174.445 60.5678 174.956 60.5592C175.409 60.5797 175.862 60.5067 176.286 60.3449C176.71 60.1831 177.096 59.9359 177.42 59.6186C178.255 58.5746 178.71 57.2776 178.71 55.9408C178.71 54.6039 178.255 53.3069 177.42 52.2629C176.743 51.6621 175.861 51.3454 174.956 51.3787ZM174.711 59.3176C174.187 59.3115 173.684 59.1103 173.3 58.7532C172.961 58.3775 172.702 57.9373 172.537 57.4589C172.372 56.9805 172.305 56.4737 172.341 55.969C172.301 55.4668 172.366 54.9618 172.531 54.4859C172.696 54.0099 172.958 53.5733 173.3 53.2035C173.677 52.8331 174.183 52.6239 174.711 52.6203C176.593 52.6203 177.176 54.3699 177.176 55.969C177.176 57.568 176.668 59.3176 174.711 59.3176Z"
                fill="white"/>
        <path
                d="M185.453 58.4898L182.876 51.6045H181.22L184.701 60.3335L184.155 61.8008C184.073 62.0787 183.897 62.3191 183.656 62.4806C183.416 62.6421 183.126 62.7144 182.838 62.685C182.489 62.6834 182.142 62.6391 181.804 62.5533V63.8138C182.237 63.9433 182.687 64.0067 183.139 64.0019C183.691 64.0101 184.228 63.8273 184.66 63.4844C185.092 63.1415 185.392 62.6596 185.51 62.1206L189.441 51.5857H187.899L185.453 58.4898Z"
                fill="white"/>
        <path
                d="M202.968 55.1788H206.241C206.28 55.7402 206.206 56.3036 206.025 56.8365C205.845 57.3693 205.56 57.861 205.188 58.2829C204.588 58.8465 203.79 59.1508 202.968 59.1295C202.56 59.1367 202.156 59.0622 201.778 58.9103C201.4 58.7584 201.056 58.5323 200.767 58.2453C199.919 57.0911 199.53 55.663 199.675 54.2382C199.516 52.8297 199.892 51.4127 200.729 50.2688C201.321 49.6714 202.126 49.3332 202.968 49.3282C203.414 49.3025 203.86 49.377 204.273 49.5463C204.687 49.7155 205.057 49.9753 205.357 50.3064C205.686 50.6782 205.884 51.1473 205.921 51.6421H207.52C207.461 50.7521 207.088 49.912 206.467 49.2717C206.009 48.8139 205.462 48.4543 204.861 48.2149C204.259 47.9755 203.615 47.8614 202.968 47.8796C201.739 47.8662 200.556 48.3396 199.675 49.1965C199.076 49.8813 198.624 50.6826 198.349 51.5503C198.074 52.4179 197.981 53.333 198.076 54.2382C197.978 55.1494 198.069 56.071 198.345 56.9452C198.62 57.8194 199.073 58.6271 199.675 59.3176C200.562 60.1574 201.747 60.6107 202.968 60.578C203.62 60.587 204.265 60.4356 204.846 60.1371C205.426 59.8386 205.925 59.4022 206.297 58.8661L206.542 60.3335H207.614V53.7491H202.968V55.1788Z"
                fill="white"/>
        <path
                d="M213.691 60.3335H221.874V58.9225H215.233V54.6897H221.065V53.2412H215.233V49.5163H221.874V48.1054H213.691V60.3335Z"
                fill="white"/>
        <path
                d="M235.287 57.9819L229.286 48.1054H227.556V60.3335H229.042V50.5134L235.043 60.3335H236.774V48.1054H235.287V57.9819Z"
                fill="white"/>
        <path
                d="M247.346 47.8796C246.119 47.8702 244.937 48.3431 244.054 49.1965C243.457 49.8822 243.008 50.6842 242.736 51.5519C242.464 52.4196 242.375 53.3343 242.474 54.2382C242.375 55.1392 242.465 56.0509 242.737 56.9156C243.009 57.7802 243.457 58.5789 244.054 59.2612C244.942 60.1054 246.121 60.5762 247.346 60.5762C248.572 60.5762 249.75 60.1054 250.638 59.2612C251.232 58.5774 251.677 57.778 251.946 56.9134C252.215 56.0488 252.301 55.1379 252.2 54.2382C252.301 53.3356 252.215 52.4217 251.946 51.5541C251.678 50.6864 251.232 49.8837 250.638 49.1965C249.756 48.3431 248.574 47.8702 247.346 47.8796ZM249.566 58.2077C248.972 58.7868 248.176 59.111 247.346 59.111C246.517 59.111 245.72 58.7868 245.126 58.2077C244.289 57.0638 243.913 55.6467 244.073 54.2382C243.913 52.8297 244.289 51.4127 245.126 50.2688C245.715 49.6806 246.514 49.3502 247.346 49.3502C248.179 49.3502 248.977 49.6806 249.566 50.2688C250.403 51.4127 250.779 52.8297 250.62 54.2382C250.779 55.6467 250.403 57.0638 249.566 58.2077Z"
                fill="white"/>
        <path
                d="M263.826 58.0572L260.139 48.1054H257.919V60.3335H259.386V49.9302L263.186 60.1641H264.39L268.19 50.0242V60.3335H269.658V48.1054H267.494L263.826 58.0572Z"
                fill="white"/>
        <path
                d="M276.186 60.3335H284.35V58.9225H277.728V54.6897H283.541V53.2412H277.728V49.5163H284.35V48.1054H276.186V60.3335Z"
                fill="white"/>
        <path
                d="M297.764 57.9819L291.762 48.1054H290.032V60.3335H291.518V50.5134L297.519 60.3335H299.25V48.1054H297.764V57.9819Z"
                fill="white"/>
        <path
                d="M308.524 48.1054L304.216 60.3335H305.759L306.737 57.4363H312.061L313.058 60.3335H314.638L310.312 48.1054H308.524ZM307.226 55.9878L309.39 49.648L311.553 55.9878H307.226Z"
                fill="white"/>
        <path d="M321.11 48.1054H319.567V60.3335H326.979V58.9037H321.11V48.1054Z" fill="white"/>
        <path
                d="M26.9206 0.679149L26.1869 1.43165V38.0595H25.2651L7.78836 1.43165L7.05467 0.679149H0.752499L0 1.43165V38.7556L0.752499 39.5081H4.74074L5.49324 38.7556V2.12771H6.39624L23.873 38.7744L24.6067 39.5081H30.9277L31.6614 38.7556V1.43165L30.9277 0.679149H26.9206Z"
                fill="white"/>
        <path
                d="M265.933 1.43165L265.18 0.679149H260.139L259.386 1.43165L246.218 38.7556L246.97 39.5081H251.071L251.824 38.7744L253.855 32.9425C254.082 32.486 254.2 31.9833 254.201 31.4736C254.201 30.9639 254.084 30.461 253.858 30.004C253.632 29.547 253.304 29.1483 252.899 28.839C252.494 28.5297 252.023 28.318 251.523 28.2206L251.711 27.6562H269.545L273.458 38.7932L274.21 39.5457H278.312L279.045 38.7932L265.933 1.43165ZM262.17 9.61507H263.299L269.131 26.2265H256.339L262.17 9.61507Z"
                fill="white"/>
        <path
                d="M349.385 1.77027C348.748 1.75209 348.113 1.86422 347.521 2.09981C346.928 2.3354 346.39 2.68948 345.939 3.14037C345.488 3.59125 345.134 4.12944 344.899 4.72196C344.663 5.31449 344.551 5.94888 344.569 6.58626C344.646 7.80907 345.185 8.95673 346.078 9.79558C346.971 10.6344 348.15 11.1014 349.376 11.1014C350.601 11.1014 351.78 10.6344 352.673 9.79558C353.566 8.95673 354.106 7.80907 354.182 6.58626C354.203 5.94979 354.093 5.3158 353.86 4.72333C353.626 4.13087 353.274 3.59247 352.825 3.14129C352.375 2.69012 351.838 2.33573 351.247 2.09994C350.655 1.86415 350.022 1.75196 349.385 1.77027ZM349.385 10.424C348.883 10.4366 348.384 10.3485 347.916 10.1651C347.449 9.9816 347.023 9.70645 346.664 9.35581C346.304 9.00517 346.019 8.58615 345.824 8.12342C345.629 7.66069 345.528 7.16362 345.528 6.66151C345.528 5.64118 345.934 4.66265 346.655 3.94117C347.377 3.21969 348.355 2.81436 349.376 2.81436C350.396 2.81436 351.374 3.21969 352.096 3.94117C352.817 4.66265 353.223 5.64118 353.223 6.66151C353.223 7.65939 352.826 8.61639 352.121 9.322C351.415 10.0276 350.458 10.424 349.46 10.424"
                fill="white"/>
        <path
                d="M351.643 5.53276C351.643 4.42283 350.457 4.15945 349.272 4.15945H347.391V8.93782H348.332V7.31995H350.74V8.93782H351.699V7.52688C351.705 7.45699 351.696 7.38661 351.671 7.32089C351.646 7.25518 351.607 7.19579 351.557 7.14709C351.506 7.09839 351.446 7.0616 351.379 7.03943C351.313 7.01726 351.242 7.01026 351.172 7.01895H350.344V6.60507C351.21 6.60507 351.699 6.30407 351.699 5.53276H351.643ZM349.329 6.37932H348.332V5.10008H349.329C350.194 5.10008 350.74 5.10008 350.74 5.72089C350.74 6.3417 350.194 6.37932 349.329 6.37932Z"
                fill="white"/>
        <path
                d="M126.551 0.00190088H125.122L122.225 14.2994L107.664 21.5234V22.9343L121.98 25.8314L129.185 40.3923H130.596L133.493 26.076L148.054 18.8708V17.4599L133.757 14.5627L126.551 0.00190088Z"
                fill="white"/>
        <path
                d="M204.096 0.679149C203.814 0.980149 203.645 1.13065 203.344 1.43165V38.7556L204.096 39.5081H208.085L208.837 38.7556V1.43165L208.085 0.679149H204.096Z"
                fill="white"/>
        <path
                d="M64.7337 19.849L63.9624 20.6956C63.9624 28.7473 59.4098 34.297 53.0135 34.297C45.3192 34.297 40.8419 27.9196 40.8419 19.8679C40.8419 11.8161 45.3192 5.45751 53.0135 5.45751C55.3741 5.39347 57.6962 6.0653 59.658 7.37988C61.6198 8.69446 63.124 10.5867 63.9624 12.7944H68.9289L69.6814 12.0419C68.6356 8.47212 66.4321 5.35165 63.4179 3.17189C60.4037 0.992123 56.75 -0.123082 53.0323 0.00190088C41.7449 0.00190088 35.2357 8.73088 35.2357 19.755C35.2357 30.7791 41.8577 39.7526 53.0323 39.7526C59.3721 39.7526 62.9841 34.6168 64.3198 27.3364H64.8089V38.7556L65.5614 39.5081H69.0041L69.7378 38.7556V20.6956L69.0041 19.9431L64.7337 19.849Z"
                fill="white"/>
        <path
                d="M88.6819 16.3499C83.6778 14.939 79.2757 14.6192 79.2757 10.8943C79.2757 7.16945 82.3233 5.41989 87.0076 5.41989C91.6919 5.41989 94.5326 7.63976 94.5326 10.2547L95.2851 11.0072H98.709L99.4615 10.2547C99.4615 3.76439 94.5891 0.00190088 86.97 0.00190088C79.351 0.00190088 73.8013 4.14064 73.8013 10.8755C73.8013 17.6104 78.8807 19.1718 86.368 21.2788C93.1781 23.16 96.1129 24.4205 96.1129 28.0513C96.1129 31.6821 92.9336 34.6356 86.876 34.6356C80.8183 34.6356 77.4697 31.588 77.4697 28.5404L76.7172 27.7879H73.1052L72.3527 28.5404C72.3527 36.3476 80.3104 39.8279 86.9324 39.8279C92.99 39.8279 101.474 36.9119 101.474 28.0513C101.474 19.849 94.5138 17.9866 88.6819 16.3311"
                fill="white"/>
        <path
                d="M244.073 38.7556V34.7673L243.32 34.0148H220.35L244.073 6.17239V1.43165L243.32 0.679149H213.691L212.938 1.43165V5.41989L213.691 6.17239H236.661L212.938 34.0336V38.7556L213.691 39.5081H243.32L244.073 38.7556Z"
                fill="white"/>
        <path
                d="M300.999 20.5451V20.0936C304.047 19.5292 308.524 16.1806 308.524 12.1547C308.524 6.96251 305.665 0.679149 297.086 0.679149H283.297L282.544 1.43165V38.7556L283.297 39.5081H287.059L287.812 38.7556V25.869C287.805 24.7783 287.43 23.7219 286.747 22.8715C286.064 22.0211 285.113 21.4266 284.049 21.1847V20.5451H299.099C301.263 20.5451 303.953 23.0472 303.953 27.6374V38.7556L304.705 39.5081H308.694L309.446 38.7556V27.6374C309.446 22.558 304.329 20.5827 300.943 20.5451H300.999ZM298.215 19.153H287.643V6.17239H296.484C299.193 6.17239 303.05 7.45163 303.05 12.1547C303.05 17.7985 300.19 19.153 298.196 19.153"
                fill="white"/>
        <path
                d="M325.456 0.679149H314.168C313.886 0.980149 313.717 1.13065 313.416 1.43165V38.7556L314.168 39.5081H325.456C336.743 39.5081 343.29 30.7791 343.29 19.9807C343.29 9.18238 336.611 0.679149 325.456 0.679149ZM325.456 34.0148H318.645V11.4399C318.64 10.3468 318.265 9.2877 317.582 8.43413C316.899 7.58056 315.948 6.98248 314.883 6.73676V6.17239H325.456C333.15 6.17239 337.627 12.3617 337.627 20.1689C337.627 27.976 332.981 34.0148 325.456 34.0148Z"
                fill="white"/>
        <path
                d="M199.412 0.679149H195.424L194.671 1.43165L184.362 30.4593H183.271L173.075 1.43165L172.322 0.679149H168.277L167.525 1.43165L172.266 14.8637H176.198L176.442 15.5222C174.945 15.9397 173.57 16.7091 172.432 17.7661C171.293 18.8232 170.423 20.1372 169.895 21.5986L166.772 30.4781H165.681L155.41 1.43165L154.657 0.679149H150.669L149.917 1.43165L163.085 38.7556L163.838 39.5081H168.541L169.293 38.7556L174.956 22.5769L180.6 38.6991L181.333 39.4516H186.243L186.977 38.6991L200.146 1.37521C199.845 1.07421 199.675 0.923711 199.393 0.622712"
                fill="white"/>
    </g>
    <defs>
        <clipPath id="clip0">
            <rect width="354.182" height="64" fill="white"/>
        </clipPath>
    </defs>
</svg>
