<svg width="245" height="45" viewBox="0 0 245 45" fill="none" xmlns="http://www.w3.org/2000/svg">
    <g clip-path="url(#clip0)">
        <path
                d="M120.3 35.7C119.6 35.7 118.9 36 118.5 36.6V33.3H117.5V42H118.4L118.5 41.2C118.8 41.8 119.6 42.1 120.3 42.1C121 42.1 121.6 41.8 122 41.4C122.6 40.8 122.9 39.9 122.9 38.9C122.9 37.9 122.6 36.9 122 36.3C121.6 36 121 35.7 120.3 35.7ZM120.2 41.2C119.8 41.2 119.5 41 119.2 40.8C118.7 40.4 118.5 39.6 118.5 38.9C118.5 38.2 118.7 37.4 119.2 37C119.4 36.8 119.7 36.6 120.2 36.6C121.6 36.6 121.9 37.8 121.9 38.9C121.9 40 121.5 41.2 120.2 41.2Z"
                fill="#1D232C"/>
        <path
                d="M127.6 40.7L125.8 35.9H124.6L127 42L126.6 43C126.4 43.5 126.1 43.6 125.7 43.6C125.3 43.6 125 43.5 125 43.5V44.4C125.1 44.4 125.4 44.5 125.9 44.5C126.8 44.5 127.3 44 127.5 43.2L130.2 35.9H129.1L127.6 40.7Z"
                fill="#1D232C"/>
        <path
                d="M139.8 38.4H142.1C142.1 39.2 141.9 40 141.4 40.6C141 41 140.5 41.2 139.9 41.2C139.3 41.2 138.8 41 138.4 40.6C137.7 39.9 137.6 38.7 137.6 37.8C137.6 36.9 137.6 35.8 138.3 35C138.7 34.6 139.3 34.4 139.8 34.4C140.5 34.4 141.1 34.6 141.5 35.1C141.7 35.4 141.8 35.6 141.9 36H143C143 35.3 142.7 34.8 142.3 34.3C141.7 33.7 140.8 33.3 139.9 33.3C139 33.3 138.2 33.6 137.6 34.2C136.7 35.1 136.5 36.3 136.5 37.7C136.5 39.2 136.7 40.4 137.6 41.2C138.2 41.8 139 42.1 139.9 42.1C140.9 42.1 141.8 41.6 142.2 40.9L142.4 41.9H143.1V37.3H139.9V38.4H139.8Z"
                fill="#1D232C"/>
        <path d="M147.3 42H153V41H148.4V38H152.4V37H148.4V34.4H153V33.5H147.3V42Z" fill="#1D232C"/>
        <path d="M162.3 40.3L158.1 33.5H156.9V42H158V35.1L162.1 42H163.3V33.5H162.3V40.3Z" fill="#1D232C"/>
        <path
                d="M170.7 33.3C169.8 33.3 169 33.6 168.4 34.2C167.5 35.1 167.3 36.3 167.3 37.7C167.3 39.1 167.5 40.3 168.4 41.2C169 41.8 169.8 42.1 170.7 42.1C171.6 42.1 172.4 41.8 173 41.2C173.9 40.3 174.1 39.1 174.1 37.7C174.1 36.3 173.9 35.1 173 34.2C172.4 33.6 171.5 33.3 170.7 33.3ZM172.2 40.5C171.8 40.9 171.2 41.1 170.7 41.1C170.2 41.1 169.6 40.9 169.2 40.5C168.5 39.8 168.5 38.6 168.5 37.7C168.5 36.8 168.5 35.7 169.2 34.9C169.6 34.5 170.2 34.3 170.7 34.3C171.2 34.3 171.8 34.5 172.2 34.9C172.9 35.6 172.9 36.8 172.9 37.7C173 38.6 172.9 39.7 172.2 40.5Z"
                fill="#1D232C"/>
        <path d="M182.1 40.4L179.6 33.5H178V42H179.1V34.7L181.7 41.8H182.5L185.2 34.8V42H186.2V33.5H184.7L182.1 40.4Z"
              fill="#1D232C"/>
        <path d="M190.7 42H196.4V41H191.8V38H195.9V37H191.8V34.4H196.4V33.5H190.7V42Z" fill="#1D232C"/>
        <path d="M205.7 40.3L201.6 33.5H200.4V42H201.4V35.1L205.6 42H206.8V33.5H205.7V40.3Z" fill="#1D232C"/>
        <path
                d="M213.2 33.5L210.2 42H211.3L212 40H215.7L216.4 42H217.5L214.5 33.5H213.2ZM212.3 38.9L213.8 34.5L215.3 38.9H212.3Z"
                fill="#1D232C"/>
        <path d="M222 33.5H220.9V42H226.1V41H222V33.5Z" fill="#1D232C"/>
        <path
                d="M241.6 1.2C239.6 1.2 238.3 2.7 238.3 4.5C238.3 6.3 239.6 7.8 241.6 7.8C243.6 7.8 244.9 6.3 244.9 4.5C244.9 2.7 243.6 1.2 241.6 1.2ZM241.6 7.3C240 7.3 238.9 6.1 238.9 4.6C238.9 3.2 240 1.9 241.6 1.9C243.2 1.9 244.3 3.1 244.3 4.6C244.3 6 243.2 7.3 241.6 7.3Z"
                fill="#1D232C"/>
        <path
                d="M243.2 3.9C243.2 3.1 242.4 2.9 241.6 2.9H240.2V6.2H240.9V5.1H242.6V6.2H243.3V5.2C243.3 5 243.2 4.8 242.9 4.8H242.3V4.6C242.9 4.5 243.2 4.4 243.2 3.9ZM241.6 4.4H240.9V3.5H241.6C242.2 3.5 242.6 3.5 242.6 3.9C242.5 4.4 242.2 4.4 241.6 4.4Z"
                fill="#1D232C"/>
        <path
                d="M140.6 0.5C140.4 0.7 140.3 0.8 140.1 1V27C140.3 27.2 140.4 27.3 140.6 27.5H143.4C143.6 27.3 143.7 27.2 143.9 27V1C143.7 0.8 143.6 0.7 143.4 0.5H140.6Z"
                fill="#1D232C"/>
        <path
                d="M210.6 27.5H213.4C213.6 27.3 213.7 27.2 213.9 27V19.3C213.9 15.7 210.3 14.4 207.9 14.4H208V14C210.1 13.6 213.2 11.3 213.2 8.5C213.2 4.9 211.2 0.5 205.2 0.5H195.6C195.4 0.7 195.3 0.8 195.1 1V27C195.3 27.2 195.4 27.3 195.6 27.5H198.2C198.4 27.3 198.5 27.2 198.7 27V18C198.7 16.2 197.3 14.8 195.6 14.6V14.3C195.6 14.3 206.1 14.3 206.7 14.3C208.2 14.3 210.1 16 210.1 19.2V27C210.2 27.2 210.4 27.3 210.6 27.5ZM206 13.8H198.7V4.3H204.9C206.8 4.3 209.5 5.2 209.5 8.5C209.4 12.4 207.4 13.8 206 13.8Z"
                fill="#1D232C"/>
        <path
                d="M224.9 0.5H217.1C216.9 0.7 216.8 0.8 216.6 1V27C216.8 27.2 216.9 27.3 217.1 27.5H224.9C232.7 27.5 237.3 21.4 237.3 13.9C237.3 6.4 232.8 0.5 224.9 0.5ZM224.9 23.7H220.2V8C220.2 6.2 218.8 4.8 217.1 4.6V4.3H225C230.3 4.3 233.5 8.6 233.5 14C233.4 19.5 230.3 23.7 224.9 23.7Z"
                fill="#1D232C"/>
        <path
                d="M192.7 27L183.6 1C183.4 0.8 183.1 0.5 183.1 0.5H179.6L179.1 1L170 27C170 27 170.4 27.4 170.5 27.5H173.3L173.8 27L175.2 23C175.9 21.1 174.8 19.6 173 19.6L173.1 19.3H186.1L188.8 27L189.3 27.5H192.1L192.7 27ZM176.7 18.7L180.9 6.7H181.7L185.9 18.7H176.7Z"
                fill="#1D232C"/>
        <path
                d="M125.4 27.5H127.7H128.2C128.4 27.3 128.5 27.2 128.7 27L137.9 1C137.7 0.8 137.6 0.7 137.4 0.5H134.6C134.4 0.7 134.3 0.8 134.1 1L127 21.2H126.2L119 1C118.8 0.8 118.7 0.7 118.5 0.5H115.7C115.5 0.7 115.4 0.8 115.2 1L118.5 10.3H121.8L121.9 10.6C121.9 10.6 118.2 11.1 116.8 15L114.6 21.2H113.8L106.8 1C106.6 0.8 106.5 0.7 106.3 0.5H103.5C103.3 0.7 103.2 0.8 103 1L112.2 27C112.4 27.2 112.5 27.3 112.7 27.5H113.2H115.5H116C116.2 27.3 116.3 27.2 116.5 27L120.5 15.8L124.5 27C124.7 27.2 124.8 27.3 125 27.5H125.4Z"
                fill="#1D232C"/>
        <path
                d="M168.4 27V24.2L167.9 23.7H151.9L168.4 4.3V1L167.9 0.5H147.3L146.8 1V3.8L147.3 4.3H163.3L146.8 23.7V27L147.3 27.5H167.9L168.4 27Z"
                fill="#1D232C"/>
        <path d="M86.7 0H85.7L83.7 9.9L73.6 15V15.9L83.5 18L88.5 28.1H89.5L91.5 18.1L101.6 13.1V12.1L91.7 10.1L86.7 0Z"
              fill="#1D232C"/>
        <path
                d="M43.7 13.8L43.2 14.3C43.2 19.9 39.9999 23.8 35.5999 23.8C30.2999 23.8 27.1 19.4 27.1 13.8C27.1 8.2 30.1999 3.8 35.5999 3.8C39.2999 3.8 41.9 5.9 43.2 9H46.7L47.2 8.5C45.4 3.4 41.3999 0 35.5999 0C27.7999 0 23.2 6.1 23.2 13.7C23.2 21.4 27.7999 27.6 35.5999 27.6C39.9999 27.6 42.5 24 43.5 19H43.7999V27C44 27.2 44.0999 27.3 44.2999 27.5H46.7C46.9 27.3 47 27.2 47.2 27V14.3L46.7 13.8H43.7Z"
                fill="#1D232C"/>
        <path
                d="M17.4 0.5L16.9 1V26.5H16.6L4.4 1L3.9 0.5H0.5L0 1V27L0.5 27.5H3.3L3.8 27V1.5H4.2L16.3 27L16.8 27.5H20.2L20.7 27V1L20.2 0.5H17.4Z"
                fill="#1D232C"/>
        <path
                d="M60.3 11.4C56.8 10.4 53.7 10.2 53.7 7.6C53.7 5 55.8 3.8 59.1 3.8C62.4 3.8 64.4 5.3 64.4 7.2L64.9 7.7H67.3L67.8 7.2C67.8 2.6 64.4 0.0999997 59.1 0.0999997C53.9 -2.90573e-07 50 2.9 50 7.6C50 12.3 53.5 13.4 58.7 14.8C63.4 16.1 65.5 17 65.5 19.5C65.5 22 63.3 24.1 59.1 24.1C54.9 24.1 52.5 22 52.5 19.9L52 19.4H49.5L49 19.9C49 25.3 54.5 27.8 59.1 27.8C63.3 27.8 69.2 25.8 69.2 19.6C69.2 13.8 64.4 12.5 60.3 11.4Z"
                fill="#1D232C"/>
    </g>
    <defs>
        <clipPath id="clip0">
            <rect width="245" height="44.5" fill="white"/>
        </clipPath>
    </defs>
</svg>
